<svg height="512" viewBox="0 0 512 512" width="512" xmlns="http://www.w3.org/2000/svg"><g id="Flat"><path d="m88 24h304v416h-304z" fill="#4eb9c7"/><path d="m56 24h304v416h-304z" fill="#5ac6d4"/><path d="m328 440h-304v-416h240l64 64z" fill="#60d1e0"/><path d="m264 24v64h64z" fill="#a0dde5"/><path d="m231.725 115.892a87.638 87.638 0 0 0 -55.725-19.892v88z" fill="#f98500"/><path d="m262.058 202.441a88.1 88.1 0 0 0 -30.333-86.549l-55.725 68.108z" fill="#ffb531"/><path d="m176 96a88.007 88.007 0 0 0 -17.261 174.3l17.261-86.3z" fill="#f35244"/><path d="m176 184-17.261 86.3a88.082 88.082 0 0 0 103.319-67.862z" fill="#7eb457"/><path d="m56 64h48v16h-48z" fill="#4eb9c7"/><path d="m56 96h32v16h-32z" fill="#4eb9c7"/><path d="m104 328h136v16h-136z" fill="#4eb9c7"/><path d="m56 328h32v16h-32z" fill="#4eb9c7"/><path d="m56 360h184v16h-184z" fill="#4eb9c7"/><path d="m56 296h184v16h-184z" fill="#4eb9c7"/><path d="m176 392h64v16h-64z" fill="#4eb9c7"/><path d="m56 392h104v16h-104z" fill="#4eb9c7"/><rect fill="#348fd9" height="320" rx="24" width="224" x="264" y="152"/><path d="m488 229.57v218.43a24.006 24.006 0 0 1 -24 24h-176a24.006 24.006 0 0 1 -24-24v-33.39c84.44-34.34 165.64-92.64 224-185.04z" fill="#3086cd"/><path d="m296 184h160v64h-160z" fill="#a0dde5"/><path d="m296 184h160v16h-160z" fill="#97d2d9"/><g fill="#f35244"><path d="m296 280h32v32h-32z"/><path d="m360 280h32v32h-32z"/><path d="m424 280h32v32h-32z"/><path d="m296 344h32v32h-32z"/><path d="m360 344h32v32h-32z"/><path d="m424 344h32v32h-32z"/><path d="m296 408h32v32h-32z"/><path d="m360 408h32v32h-32z"/><path d="m424 408h32v32h-32z"/></g><path d="m416 208h16v16h-16z" fill="#348fd9"/><path d="m384 208h16v16h-16z" fill="#348fd9"/><path d="m352 208h16v16h-16z" fill="#348fd9"/><path d="m456 408a16 16 0 0 0 -16-16 16 16 0 0 0 -16 16 16 16 0 0 0 -16-16 16 16 0 0 0 -16 16v-48a16 16 0 0 0 -16-16 16 16 0 0 0 -16 16v80l-21.389-14.259a17.117 17.117 0 0 0 -26.611 14.242 17.114 17.114 0 0 0 6.159 13.149l41.841 34.868h128v-80a16 16 0 0 0 -16-16 16 16 0 0 0 -16 16z" fill="#fec9a3"/></g></svg>